<svg width="120" height="189" viewBox="0 0 120 189" fill="none" xmlns="http://www.w3.org/2000/svg">
<rect width="120" height="259.84" rx="12" fill="#EDE8E3"/>
<circle cx="107.84" cy="18.56" r="5.76" fill="#F4F3F6"/>
<path d="M108.291 18.56L109.667 17.1872C109.727 17.127 109.761 17.0452 109.761 16.96C109.761 16.8748 109.727 16.7931 109.667 16.7328C109.607 16.6726 109.525 16.6387 109.44 16.6387C109.355 16.6387 109.273 16.6726 109.213 16.7328L107.84 18.1088L106.467 16.7328C106.407 16.6726 106.325 16.6387 106.24 16.6387C106.155 16.6387 106.073 16.6726 106.013 16.7328C105.953 16.7931 105.919 16.8748 105.919 16.96C105.919 17.0452 105.953 17.127 106.013 17.1872L107.389 18.56L106.013 19.9328C105.983 19.9626 105.959 19.998 105.943 20.0369C105.927 20.0759 105.918 20.1178 105.918 20.16C105.918 20.2023 105.927 20.2441 105.943 20.2831C105.959 20.3221 105.983 20.3575 106.013 20.3872C106.043 20.4172 106.078 20.441 106.117 20.4573C106.156 20.4735 106.198 20.4819 106.24 20.4819C106.282 20.4819 106.324 20.4735 106.363 20.4573C106.402 20.441 106.437 20.4172 106.467 20.3872L107.84 19.0112L109.213 20.3872C109.243 20.4172 109.278 20.441 109.317 20.4573C109.356 20.4735 109.398 20.4819 109.44 20.4819C109.482 20.4819 109.524 20.4735 109.563 20.4573C109.602 20.441 109.637 20.4172 109.667 20.3872C109.697 20.3575 109.721 20.3221 109.737 20.2831C109.753 20.2441 109.762 20.2023 109.762 20.16C109.762 20.1178 109.753 20.0759 109.737 20.0369C109.721 19.998 109.697 19.9626 109.667 19.9328L108.291 18.56Z" fill="black"/>
<path d="M14.071 99.5273V97.7391H14.7398L15.8803 99.5273H17.1545L15.8521 97.5772C16.5702 97.3379 16.9926 96.7958 16.9926 96.1129C16.9926 95.0639 16.2534 94.4726 14.9792 94.4726H13.0009V99.5273H14.071ZM14.071 95.3596H14.9299C15.5776 95.3596 15.9225 95.6131 15.9225 96.1129C15.9225 96.6057 15.5776 96.8591 14.9299 96.8591H14.071V95.3596ZM19.211 99.5907C20.1262 99.5907 20.7809 99.1049 20.9921 98.2531H20.0206C19.908 98.6262 19.6193 98.8374 19.1899 98.8374C18.69 98.8374 18.3944 98.4995 18.331 97.887H20.9992C21.1752 96.662 20.3867 95.6975 19.1969 95.6975C18.1128 95.6975 17.3313 96.5142 17.3313 97.6335C17.3313 98.8092 18.0846 99.5907 19.211 99.5907ZM19.1758 96.4156C19.6404 96.4156 19.9361 96.7465 19.9643 97.2675H18.3451C18.4296 96.7113 18.7182 96.4156 19.1758 96.4156ZM24.8296 98.3235C24.8296 97.7814 24.4565 97.4435 23.7244 97.3027L22.9992 97.1689C22.6613 97.1055 22.5064 97.014 22.5064 96.7887C22.5064 96.5494 22.7458 96.4156 23.1048 96.4156C23.5202 96.4156 23.7948 96.6409 23.83 97.007H24.7663C24.6959 96.1974 24.0482 95.6975 23.1048 95.6975C22.1685 95.6975 21.5701 96.1833 21.5701 96.8803C21.5701 97.4646 21.9784 97.8377 22.6543 97.9574L23.3301 98.0841C23.6892 98.1545 23.844 98.2531 23.844 98.4924C23.844 98.7599 23.5554 98.8796 23.1752 98.8796C22.6895 98.8796 22.3586 98.6332 22.3516 98.246H21.4152C21.4927 99.0838 22.0911 99.5977 23.1612 99.5977C24.2312 99.5977 24.8296 99.1119 24.8296 98.3235ZM27.7857 97.9433C27.7857 98.4502 27.4478 98.7318 27.0958 98.7318C26.7016 98.7318 26.4411 98.4995 26.4411 97.9715V95.7679H25.4625V98.1615C25.4625 99.1401 26.0116 99.5977 26.7649 99.5977C27.2436 99.5977 27.659 99.3654 27.8632 99.0345V99.5273H28.7572V95.7679H27.7857V97.9433ZM30.6221 99.5273V94.4726H29.6365V99.5273H30.6221ZM33.8369 98.5769C33.6961 98.6543 33.5271 98.6966 33.3441 98.6966C32.9921 98.6966 32.795 98.5206 32.795 98.0841V96.6057H33.8721V95.7679H32.795V94.6556H31.8234V95.7679H31.0631V96.6057H31.8234V98.3094C31.8234 99.1542 32.3092 99.5977 33.0836 99.5977C33.3722 99.5977 33.5975 99.5484 33.8369 99.4287V98.5769ZM37.6171 98.3235C37.6171 97.7814 37.244 97.4435 36.5119 97.3027L35.7867 97.1689C35.4488 97.1055 35.2939 97.014 35.2939 96.7887C35.2939 96.5494 35.5333 96.4156 35.8923 96.4156C36.3077 96.4156 36.5823 96.6409 36.6175 97.007H37.5538C37.4834 96.1974 36.8357 95.6975 35.8923 95.6975C34.956 95.6975 34.3576 96.1833 34.3576 96.8803C34.3576 97.4646 34.7659 97.8377 35.4418 97.9574L36.1176 98.0841C36.4767 98.1545 36.6315 98.2531 36.6315 98.4924C36.6315 98.7599 36.3429 98.8796 35.9627 98.8796C35.477 98.8796 35.1461 98.6332 35.1391 98.246H34.2027C34.2802 99.0838 34.8786 99.5977 35.9487 99.5977C37.0187 99.5977 37.6171 99.1119 37.6171 98.3235ZM41.4179 99.5977C42.5091 99.5977 43.3257 98.7388 43.3257 97.6476C43.3257 96.5494 42.5091 95.6975 41.4179 95.6975C40.3267 95.6975 39.5101 96.5494 39.5101 97.6476C39.5101 98.7388 40.3267 99.5977 41.4179 99.5977ZM41.4179 98.7318C40.9321 98.7318 40.5168 98.3446 40.5168 97.6476C40.5168 96.9507 40.9321 96.5705 41.4179 96.5705C41.9037 96.5705 42.319 96.9507 42.319 97.6476C42.319 98.3446 41.9037 98.7318 41.4179 98.7318ZM45.1777 99.5273V96.6057H46.1562V95.7679H45.1777V95.5849C45.1777 95.3244 45.3537 95.2188 45.6212 95.2188C45.7479 95.2188 45.8887 95.2399 45.9943 95.2822V94.5078C45.8324 94.4374 45.6282 94.3951 45.3889 94.3951C44.6074 94.3951 44.2061 94.8175 44.2061 95.5638V95.7679H43.4458V96.6057H44.2061V99.5273H45.1777ZM49.2848 99.5273V97.5983H51.1363V96.6761H49.2848V95.4019H51.4813V94.4726H48.2147V99.5273H49.2848ZM54.2327 99.5273H55.0282V97.1619C55.0282 96.2396 54.4509 95.6975 53.4653 95.6975C52.5572 95.6975 51.9306 96.2607 51.8743 97.1267H52.7543C52.7895 96.7043 53.0429 96.4579 53.4653 96.4579C53.8736 96.4579 54.113 96.7043 54.113 97.1267V97.3519C53.8807 97.3238 53.6976 97.3097 53.4864 97.3097C52.3882 97.3097 51.7968 97.7039 51.7968 98.4361C51.7968 99.1401 52.3178 99.5977 53.0992 99.5977C53.6132 99.5977 53.9863 99.4147 54.2327 99.0627V99.5273ZM52.7191 98.4079C52.7191 98.07 52.9936 97.894 53.5498 97.894C53.7188 97.894 53.8807 97.9081 54.113 97.9433V98.2108C54.113 98.6473 53.8103 98.9219 53.3104 98.9219C52.9444 98.9219 52.7191 98.7247 52.7191 98.4079ZM56.85 97.4787C56.85 96.8732 57.1809 96.5635 57.5681 96.5635C58.0116 96.5635 58.2299 96.8732 58.2299 97.4294V99.5273H59.2014V97.0985C59.2014 96.1903 58.6804 95.6975 57.9271 95.6975C57.4343 95.6975 57.0471 95.9299 56.7726 96.303V95.7679H55.8715V99.5273H56.85V97.4787ZM62.3544 98.5769C62.2136 98.6543 62.0446 98.6966 61.8616 98.6966C61.5096 98.6966 61.3124 98.5206 61.3124 98.0841V96.6057H62.3896V95.7679H61.3124V94.6556H60.3409V95.7679H59.5806V96.6057H60.3409V98.3094C60.3409 99.1542 60.8267 99.5977 61.6011 99.5977C61.8897 99.5977 62.115 99.5484 62.3544 99.4287V98.5769ZM65.2258 99.5273H66.0213V97.1619C66.0213 96.2396 65.444 95.6975 64.4584 95.6975C63.5503 95.6975 62.9237 96.2607 62.8674 97.1267H63.7474C63.7826 96.7043 64.036 96.4579 64.4584 96.4579C64.8668 96.4579 65.1061 96.7043 65.1061 97.1267V97.3519C64.8738 97.3238 64.6908 97.3097 64.4796 97.3097C63.3813 97.3097 62.79 97.7039 62.79 98.4361C62.79 99.1401 63.3109 99.5977 64.0924 99.5977C64.6063 99.5977 64.9794 99.4147 65.2258 99.0627V99.5273ZM63.7122 98.4079C63.7122 98.07 63.9868 97.894 64.5429 97.894C64.7119 97.894 64.8738 97.9081 65.1061 97.9433V98.2108C65.1061 98.6473 64.8034 98.9219 64.3036 98.9219C63.9375 98.9219 63.7122 98.7247 63.7122 98.4079ZM70.0396 98.3235C70.0396 97.7814 69.6665 97.4435 68.9343 97.3027L68.2092 97.1689C67.8713 97.1055 67.7164 97.014 67.7164 96.7887C67.7164 96.5494 67.9558 96.4156 68.3148 96.4156C68.7302 96.4156 69.0047 96.6409 69.0399 97.007H69.9763C69.9059 96.1974 69.2582 95.6975 68.3148 95.6975C67.3785 95.6975 66.7801 96.1833 66.7801 96.8803C66.7801 97.4646 67.1884 97.8377 67.8643 97.9574L68.5401 98.0841C68.8991 98.1545 69.054 98.2531 69.054 98.4924C69.054 98.7599 68.7654 98.8796 68.3852 98.8796C67.8995 98.8796 67.5686 98.6332 67.5615 98.246H66.6252C66.7027 99.0838 67.3011 99.5977 68.3711 99.5977C69.4412 99.5977 70.0396 99.1119 70.0396 98.3235ZM73.9977 95.7679H73.0191L72.1603 98.3446L71.2169 95.7679H70.1609L71.6393 99.4851L71.1043 100.886H72.1673L73.9977 95.7679ZM78.2708 99.6329C78.4257 99.6329 78.5735 99.6188 78.7214 99.5977L79.3972 100.809H80.4814L79.6366 99.2598C80.3828 98.8092 80.8686 97.9855 80.8686 96.9929C80.8686 95.4793 79.7351 94.367 78.2708 94.367C76.8135 94.367 75.6871 95.4793 75.6871 96.9929C75.6871 98.5065 76.8135 99.6329 78.2708 99.6329ZM78.2708 98.6755C77.3486 98.6755 76.7854 97.9222 76.7854 96.9929C76.7854 96.0636 77.3486 95.3244 78.2708 95.3244C79.2001 95.3244 79.7633 96.0636 79.7633 96.9929C79.7633 97.9222 79.2001 98.6755 78.2708 98.6755ZM83.8101 97.9433C83.8101 98.4502 83.4722 98.7318 83.1202 98.7318C82.7259 98.7318 82.4654 98.4995 82.4654 97.9715V95.7679H81.4869V98.1615C81.4869 99.1401 82.036 99.5977 82.7893 99.5977C83.268 99.5977 83.6834 99.3654 83.8875 99.0345V99.5273H84.7816V95.7679H83.8101V97.9433ZM86.7943 94.895C86.7943 94.55 86.5268 94.3036 86.1396 94.3036C85.7594 94.3036 85.4919 94.55 85.4919 94.895C85.4919 95.2259 85.7594 95.4723 86.1396 95.4723C86.5268 95.4723 86.7943 95.2259 86.7943 94.895ZM86.6394 99.5273V95.7679H85.6608V99.5273H86.6394ZM90.5515 99.5273V98.6755H88.5521L90.4952 96.5705V95.7679H87.3413V96.6127H89.2843L87.3483 98.7388V99.5273H90.5515ZM93.813 99.5273L94.0876 98.246H94.6648L94.3903 99.5273H95.1295L95.4111 98.246H96.1432V97.5209H95.5448L95.7138 96.7676H96.4248V96.0214H95.8476L96.1221 94.7683H95.3829L95.1084 96.0214H94.5311L94.8056 94.7683H94.0594L93.7848 96.0214H93.0456V96.7676H93.644L93.4821 97.5209H92.764V98.246H93.3413L93.0668 99.5273H93.813ZM94.3903 96.7676H94.9676L94.8056 97.5209H94.2284L94.3903 96.7676ZM98.9322 99.5273V94.7683H97.0525V95.6131H97.9536V99.5273H98.9322ZM101.469 99.5977C102.666 99.5977 103.271 98.7881 103.271 97.9715C103.271 97.1689 102.729 96.3875 101.596 96.3875C101.314 96.3875 101.04 96.4579 100.8 96.6127L100.948 95.6412H102.99V94.7683H100.237L99.8219 97.4364L100.624 97.6969C100.772 97.3731 101.054 97.2182 101.434 97.2182C102.011 97.2182 102.258 97.5983 102.258 97.9715C102.258 98.3587 102.039 98.7247 101.462 98.7247C101.019 98.7247 100.695 98.4924 100.638 98.0771H99.6599C99.6881 98.9641 100.455 99.5977 101.469 99.5977ZM105.498 99.5836C106.582 99.5836 107.343 98.8585 107.343 97.9433C107.343 97.0422 106.66 96.4015 105.688 96.4015C105.611 96.4015 105.533 96.4086 105.456 96.4367L106.822 94.7683H105.716L104.28 96.5001C103.837 97.0281 103.661 97.4083 103.661 98.0067C103.661 98.8585 104.414 99.5836 105.498 99.5836ZM105.505 98.767C105.062 98.767 104.681 98.4854 104.681 97.9715C104.681 97.4153 105.062 97.1689 105.505 97.1689C105.949 97.1689 106.329 97.4364 106.329 97.9785C106.329 98.4854 105.949 98.767 105.505 98.767Z" fill="#191D63"/>
<path d="M75.1179 51.9555H44.1402V78.7356H75.1179V51.9555Z" fill="url(#paint0_linear_28_11)"/>
<path d="M74.4605 52.6155V78.0756H44.8001V52.6155H74.4605ZM75.7805 51.2955H43.4801V79.3956H75.7805V51.2955Z" fill="#F0EBE6"/>
<path d="M44.8002 65.3456H68.0322" stroke="#1A1F71" stroke-width="1.32" stroke-miterlimit="10"/>
<path d="M69.8169 31.04L37.12 45.4065L40.5141 53.1312L73.211 38.7647L69.8169 31.04Z" fill="url(#paint1_linear_28_11)" stroke="#F0EBE6" stroke-width="1.32" stroke-miterlimit="10"/>
<path d="M74.3734 71.6895C77.8771 71.6895 80.7174 68.8492 80.7174 65.3456C80.7174 61.8419 77.8771 59.0016 74.3734 59.0016C70.8698 59.0016 68.0295 61.8419 68.0295 65.3456C68.0295 68.8492 70.8698 71.6895 74.3734 71.6895Z" fill="#F0EBE6" stroke="url(#paint2_linear_28_11)" stroke-width="1.32" stroke-miterlimit="10"/>
<path d="M74.3734 62.1564V68.5347" stroke="#25D366" stroke-width="1.32" stroke-miterlimit="10"/>
<path d="M77.5652 65.3456H71.1843" stroke="#25D366" stroke-width="1.32" stroke-miterlimit="10"/>
<path d="M53.3775 59.9124C54.1695 60.7044 55.9119 65.3456 55.9119 65.3456C55.9119 65.3456 51.2787 63.6111 50.4788 62.8111C50.2881 62.6205 50.1369 62.3941 50.0337 62.145C49.9305 61.8958 49.8774 61.6288 49.8774 61.3591C49.8774 61.0895 49.9305 60.8225 50.0337 60.5733C50.1369 60.3242 50.2881 60.0978 50.4788 59.9071C50.8639 59.5221 51.3862 59.3057 51.9308 59.3057C52.2005 59.3057 52.4675 59.3588 52.7166 59.462C52.9658 59.5652 53.1921 59.7165 53.3828 59.9071L53.3775 59.9124Z" stroke="#1A1F71" stroke-width="1.32" stroke-miterlimit="10"/>
<path d="M58.4463 59.9124C57.6543 60.7044 55.9119 65.3456 55.9119 65.3456C55.9119 65.3456 60.5451 63.6111 61.345 62.8111C61.5357 62.6205 61.687 62.3941 61.7902 62.145C61.8934 61.8958 61.9465 61.6288 61.9465 61.3591C61.9465 61.0895 61.8934 60.8225 61.7902 60.5733C61.687 60.3242 61.5357 60.0978 61.345 59.9071C61.1544 59.7165 60.928 59.5652 60.6788 59.462C60.4297 59.3588 60.1627 59.3057 59.893 59.3057C59.6234 59.3057 59.3563 59.3588 59.1072 59.462C58.8581 59.5652 58.6317 59.7165 58.441 59.9071L58.4463 59.9124Z" stroke="#1A1F71" stroke-width="1.32" stroke-miterlimit="10"/>
<path d="M53.2983 70.9476L55.9119 65.3456" stroke="#1A1F71" stroke-width="1.32" stroke-miterlimit="10"/>
<path d="M58.5255 70.9476L55.9119 65.3456" stroke="#1A1F71" stroke-width="1.32" stroke-miterlimit="10"/>
<path d="M78.3545 50.6936L77.9242 53.1012C77.9105 53.1635 77.8759 53.2191 77.8262 53.259C77.7765 53.2989 77.7147 53.3207 77.651 53.3207C77.5873 53.3207 77.5255 53.2989 77.4758 53.259C77.4261 53.2191 77.3915 53.1635 77.3777 53.1012L76.8761 50.7068C76.7653 50.1074 76.484 49.5527 76.0658 49.1093C75.6477 48.6658 75.1104 48.3524 74.5186 48.2067L72.1981 47.7024C72.1421 47.6845 72.0933 47.6493 72.0587 47.6019C72.0241 47.5544 72.0054 47.4972 72.0054 47.4384C72.0054 47.3797 72.0241 47.3225 72.0587 47.275C72.0933 47.2276 72.1421 47.1923 72.1981 47.1744L74.5028 46.6016C75.09 46.4373 75.6173 46.107 76.0214 45.6504C76.4255 45.1939 76.6893 44.6303 76.7811 44.0276L77.2114 41.6225C77.2252 41.5603 77.2598 41.5046 77.3094 41.4647C77.3591 41.4248 77.4209 41.4031 77.4847 41.4031C77.5484 41.4031 77.6102 41.4248 77.6599 41.4647C77.7096 41.5046 77.7442 41.5603 77.7579 41.6225L78.2595 44.017C78.3699 44.6168 78.651 45.1721 79.0692 45.616C79.4874 46.0599 80.0249 46.3737 80.617 46.5197L82.9376 47.0213C82.9935 47.0392 83.0423 47.0744 83.077 47.1219C83.1116 47.1693 83.1303 47.2266 83.1303 47.2853C83.1303 47.3441 83.1116 47.4013 83.077 47.4487C83.0423 47.4962 82.9935 47.5314 82.9376 47.5493L80.6329 48.1248C80.0464 48.2887 79.5196 48.6182 79.1155 49.0738C78.7115 49.5293 78.4473 50.0917 78.3545 50.6936Z" fill="url(#paint3_linear_28_11)"/>
<rect x="6.39999" y="120" width="107.2" height="46.08" rx="2.56" fill="#F4F3F6"/>
<path d="M31.2474 132.245C31.2474 131.697 30.8941 131.42 30.2643 131.292L29.7216 131.185C29.3786 131.113 29.0765 130.99 29.0765 130.642C29.0765 130.325 29.3376 130.043 29.8138 130.043C30.2746 130.043 30.592 130.35 30.6227 130.791H31.1962C31.1501 130.059 30.5715 129.593 29.8086 129.593C29.0458 129.593 28.503 130.059 28.503 130.678C28.503 131.303 28.9741 131.564 29.4912 131.666L30.0237 131.769C30.4486 131.861 30.6483 132.014 30.6483 132.322C30.6483 132.7 30.3002 132.921 29.8342 132.921C29.271 132.921 28.9741 132.619 28.9485 132.153H28.375C28.4211 132.885 28.9587 133.371 29.8445 133.371C30.7354 133.371 31.2474 132.885 31.2474 132.245ZM33.4019 133.397C34.3235 133.397 35.0608 132.782 35.199 131.871H34.6C34.4976 132.465 34.0163 132.89 33.407 132.89C32.68 132.89 32.168 132.301 32.168 131.477C32.168 130.663 32.68 130.074 33.407 130.074C34.0163 130.074 34.4976 130.494 34.6 131.088H35.199C35.0608 130.181 34.3235 129.567 33.4019 129.567C32.3779 129.567 31.5843 130.396 31.5843 131.477C31.5843 132.562 32.3779 133.397 33.4019 133.397ZM37.4381 133.397C38.5031 133.397 39.3069 132.562 39.3069 131.477C39.3069 130.391 38.5031 129.567 37.4381 129.567C36.3732 129.567 35.5693 130.391 35.5693 131.477C35.5693 132.562 36.3732 133.397 37.4381 133.397ZM37.4381 132.89C36.6599 132.89 36.153 132.265 36.153 131.477C36.153 130.688 36.6599 130.074 37.4381 130.074C38.2164 130.074 38.7232 130.688 38.7232 131.477C38.7232 132.265 38.2164 132.89 37.4381 132.89ZM40.4526 133.32V131.938H41.1284L42.0449 133.32H42.7207L41.7223 131.856C42.2804 131.723 42.6132 131.318 42.6132 130.791C42.6132 130.059 42.1063 129.644 41.2615 129.644H39.8894V133.32H40.4526ZM40.4526 130.115H41.2257C41.7479 130.115 42.0449 130.35 42.0449 130.791C42.0449 131.236 41.7479 131.467 41.2257 131.467H40.4526V130.115ZM45.594 132.828H43.8276V131.671H45.4045V131.18H43.8276V130.135H45.5581V129.644H43.2644V133.32H45.594V132.828ZM48.9884 133.397C50.1148 133.397 50.8367 132.593 50.8162 131.415H48.9525V131.866H50.2223C50.1199 132.496 49.6898 132.916 49.0088 132.916C48.1896 132.916 47.693 132.301 47.693 131.487C47.693 130.622 48.2152 130.074 48.9423 130.074C49.572 130.074 49.9765 130.437 50.1148 130.908H50.7701C50.5448 130.146 49.9048 129.567 48.9576 129.567C47.8876 129.567 47.1093 130.391 47.1093 131.477C47.1093 132.593 47.9285 133.397 48.9884 133.397ZM53.7536 133.32H54.3527L52.9549 129.644H52.3354L50.9274 133.32H51.4957L51.8336 132.409H53.4208L53.7536 133.32ZM52.6324 130.258L53.2519 131.953H52.0026L52.6324 130.258ZM55.4226 133.32V129.644H54.8594V133.32H55.4226ZM58.677 133.32H59.2453V129.644H58.723V132.439L56.8338 129.644H56.2194V133.32H56.7416V130.448L58.677 133.32ZM62.369 132.828H60.6026V131.671H62.1795V131.18H60.6026V130.135H62.3331V129.644H60.0394V133.32H62.369V132.828ZM64.1916 133.32C65.3385 133.32 66.0399 132.526 66.0399 131.467C66.0399 130.391 65.3641 129.644 64.1916 129.644H63.0294V133.32H64.1916ZM63.5926 130.13H64.166C65.0159 130.13 65.4665 130.637 65.4665 131.467C65.4665 132.311 65.0108 132.834 64.166 132.834H63.5926V130.13Z" fill="#060710"/>
<path d="M101.944 133.32V129.859H100.577V130.473H101.233V133.32H101.944ZM104.982 132.685H103.646L104.168 132.122C104.772 131.513 104.926 131.246 104.926 130.827C104.926 130.243 104.419 129.808 103.728 129.808C102.986 129.808 102.463 130.299 102.463 130.99H103.155C103.155 130.652 103.359 130.443 103.692 130.443C103.994 130.443 104.184 130.632 104.184 130.914C104.184 131.216 104.015 131.431 103.615 131.84L102.566 132.916V133.32H104.982V132.685ZM105.411 131.595C105.411 132.736 105.882 133.371 106.747 133.371C107.612 133.371 108.088 132.736 108.088 131.595C108.088 130.448 107.602 129.808 106.747 129.808C105.892 129.808 105.411 130.448 105.411 131.595ZM106.143 131.595C106.143 130.847 106.358 130.443 106.747 130.443C107.141 130.443 107.356 130.847 107.356 131.595C107.356 132.337 107.141 132.736 106.747 132.736C106.347 132.736 106.143 132.337 106.143 131.595Z" fill="#060710"/>
<circle cx="17.28" cy="131.52" r="5.76" fill="#EDE8E3"/>
<path d="M20.2688 132.214C17.0144 132.214 17.0144 133.058 13.76 133.058V129.804C17.0144 129.804 17.0144 128.96 20.2688 128.96V132.214Z" fill="#F0EBE6" stroke="url(#paint4_linear_28_11)" stroke-width="0.229183" stroke-miterlimit="10"/>
<path d="M20.9765 132.916C17.7221 132.916 17.7221 133.76 14.4677 133.76V130.506C17.7221 130.506 17.7221 129.661 20.9765 129.661V132.916Z" fill="url(#paint5_linear_28_11)"/>
<path d="M17.7216 132.46C18.1353 132.46 18.4706 132.124 18.4706 131.711C18.4706 131.297 18.1353 130.962 17.7216 130.962C17.308 130.962 16.9727 131.297 16.9727 131.711C16.9727 132.124 17.308 132.46 17.7216 132.46Z" stroke="#F0EBE6" stroke-width="0.229183" stroke-miterlimit="10"/>
<path d="M14.4668 133.011C14.5653 133.011 14.6629 133.03 14.754 133.067C14.8451 133.105 14.928 133.16 14.9977 133.23C15.0675 133.299 15.1229 133.382 15.1607 133.473C15.1985 133.564 15.218 133.661 15.218 133.76" stroke="#F0EBE6" stroke-width="0.229183" stroke-miterlimit="10"/>
<path d="M20.2275 132.911C20.2282 132.713 20.3075 132.523 20.4479 132.383C20.5882 132.243 20.7783 132.165 20.9765 132.165" stroke="#F0EBE6" stroke-width="0.229183" stroke-miterlimit="10"/>
<path d="M20.9765 130.41C20.7778 130.41 20.5873 130.331 20.4469 130.19C20.3064 130.05 20.2275 129.859 20.2275 129.661" stroke="#F0EBE6" stroke-width="0.229183" stroke-miterlimit="10"/>
<path d="M15.218 130.523C15.218 130.621 15.1985 130.719 15.1607 130.81C15.1229 130.901 15.0675 130.983 14.9977 131.053C14.9279 131.122 14.8451 131.177 14.754 131.215C14.6629 131.252 14.5653 131.271 14.4668 131.271" stroke="#F0EBE6" stroke-width="0.229183" stroke-miterlimit="10"/>
<path d="M30.1619 156.437C31.0835 156.437 31.8208 155.822 31.959 154.911H31.36C31.2576 155.505 30.7763 155.93 30.167 155.93C29.44 155.93 28.928 155.341 28.928 154.517C28.928 153.703 29.44 153.114 30.167 153.114C30.7763 153.114 31.2576 153.534 31.36 154.128H31.959C31.8208 153.221 31.0835 152.607 30.1619 152.607C29.1379 152.607 28.3443 153.436 28.3443 154.517C28.3443 155.602 29.1379 156.437 30.1619 156.437ZM34.1981 156.437C35.2631 156.437 36.0669 155.602 36.0669 154.517C36.0669 153.431 35.2631 152.607 34.1981 152.607C33.1332 152.607 32.3293 153.431 32.3293 154.517C32.3293 155.602 33.1332 156.437 34.1981 156.437ZM34.1981 155.93C33.4199 155.93 32.913 155.305 32.913 154.517C32.913 153.728 33.4199 153.114 34.1981 153.114C34.9764 153.114 35.4832 153.728 35.4832 154.517C35.4832 155.305 34.9764 155.93 34.1981 155.93ZM37.2126 156.36V154.978H37.8884L38.8049 156.36H39.4807L38.4823 154.896C39.0404 154.763 39.3732 154.358 39.3732 153.831C39.3732 153.099 38.8663 152.684 38.0215 152.684H36.6494V156.36H37.2126ZM37.2126 153.155H37.9857C38.5079 153.155 38.8049 153.39 38.8049 153.831C38.8049 154.276 38.5079 154.507 37.9857 154.507H37.2126V153.155ZM40.5876 156.36V154.978H41.2634L42.1799 156.36H42.8557L41.8573 154.896C42.4154 154.763 42.7482 154.358 42.7482 153.831C42.7482 153.099 42.2413 152.684 41.3965 152.684H40.0244V156.36H40.5876ZM40.5876 153.155H41.3607C41.8829 153.155 42.1799 153.39 42.1799 153.831C42.1799 154.276 41.8829 154.507 41.3607 154.507H40.5876V153.155ZM45.729 155.868H43.9626V154.711H45.5395V154.22H43.9626V153.175H45.6931V152.684H43.3994V156.36H45.729V155.868ZM47.9919 156.437C48.9135 156.437 49.6508 155.822 49.789 154.911H49.19C49.0876 155.505 48.6063 155.93 47.997 155.93C47.27 155.93 46.758 155.341 46.758 154.517C46.758 153.703 47.27 153.114 47.997 153.114C48.6063 153.114 49.0876 153.534 49.19 154.128H49.789C49.6508 153.221 48.9135 152.607 47.9919 152.607C46.9679 152.607 46.1743 153.436 46.1743 154.517C46.1743 155.602 46.9679 156.437 47.9919 156.437ZM51.7036 156.36V153.191H52.9016V152.684H49.9423V153.191H51.1404V156.36H51.7036ZM55.7442 155.08C56.5686 155.08 57.101 154.645 57.101 153.872C57.101 153.104 56.5686 152.684 55.7442 152.684H54.4694V156.36H55.0326V155.08H55.7442ZM55.7391 153.16C56.2358 153.16 56.5378 153.421 56.5378 153.877C56.5378 154.332 56.2358 154.604 55.7391 154.604H55.0326V153.16H55.7391ZM58.2276 156.36V154.978H58.9034L59.8199 156.36H60.4957L59.4973 154.896C60.0554 154.763 60.3882 154.358 60.3882 153.831C60.3882 153.099 59.8813 152.684 59.0365 152.684H57.6644V156.36H58.2276ZM58.2276 153.155H59.0007C59.5229 153.155 59.8199 153.39 59.8199 153.831C59.8199 154.276 59.5229 154.507 59.0007 154.507H58.2276V153.155ZM63.369 155.868H61.6026V154.711H63.1795V154.22H61.6026V153.175H63.3331V152.684H61.0394V156.36H63.369V155.868ZM65.1916 156.36C66.3385 156.36 67.0399 155.566 67.0399 154.507C67.0399 153.431 66.3641 152.684 65.1916 152.684H64.0294V156.36H65.1916ZM64.5926 153.17H65.166C66.0159 153.17 66.4665 153.677 66.4665 154.507C66.4665 155.351 66.0108 155.874 65.166 155.874H64.5926V153.17ZM68.1926 156.36V152.684H67.6294V156.36H68.1926ZM70.5919 156.437C71.5135 156.437 72.2508 155.822 72.389 154.911H71.79C71.6876 155.505 71.2063 155.93 70.597 155.93C69.87 155.93 69.358 155.341 69.358 154.517C69.358 153.703 69.87 153.114 70.597 153.114C71.2063 153.114 71.6876 153.534 71.79 154.128H72.389C72.2508 153.221 71.5135 152.607 70.5919 152.607C69.5679 152.607 68.7743 153.436 68.7743 154.517C68.7743 155.602 69.5679 156.437 70.5919 156.437ZM74.3036 156.36V153.191H75.5016V152.684H72.5423V153.191H73.7404V156.36H74.3036ZM76.5626 156.36V152.684H75.9994V156.36H76.5626ZM79.0131 156.437C80.0781 156.437 80.8819 155.602 80.8819 154.517C80.8819 153.431 80.0781 152.607 79.0131 152.607C77.9482 152.607 77.1443 153.431 77.1443 154.517C77.1443 155.602 77.9482 156.437 79.0131 156.437ZM79.0131 155.93C78.2349 155.93 77.728 155.305 77.728 154.517C77.728 153.728 78.2349 153.114 79.0131 153.114C79.7914 153.114 80.2982 153.728 80.2982 154.517C80.2982 155.305 79.7914 155.93 79.0131 155.93ZM83.922 156.36H84.4903V152.684H83.968V155.479L82.0788 152.684H81.4644V156.36H81.9866V153.488L83.922 156.36ZM87.9724 155.285C87.9724 154.737 87.6191 154.46 86.9893 154.332L86.4466 154.225C86.1036 154.153 85.8015 154.03 85.8015 153.682C85.8015 153.365 86.0626 153.083 86.5388 153.083C86.9996 153.083 87.317 153.39 87.3477 153.831H87.9212C87.8751 153.099 87.2965 152.633 86.5336 152.633C85.7708 152.633 85.228 153.099 85.228 153.718C85.228 154.343 85.6991 154.604 86.2162 154.706L86.7487 154.809C87.1736 154.901 87.3733 155.054 87.3733 155.362C87.3733 155.74 87.0252 155.961 86.5592 155.961C85.996 155.961 85.6991 155.659 85.6735 155.193H85.1C85.1461 155.925 85.6837 156.411 86.5695 156.411C87.4604 156.411 87.9724 155.925 87.9724 155.285Z" fill="#060710"/>
<path d="M107.873 155.679V155.06H107.387V152.899H106.824L105.037 155.152V155.679H106.68V156.36H107.387V155.679H107.873ZM105.815 155.06L106.68 153.918V155.06H105.815Z" fill="#060710"/>
<circle cx="17.28" cy="154.56" r="5.76" fill="#EDE8E3"/>
<path d="M19.4272 153.027C19.3974 152.997 19.362 152.973 19.3231 152.957C19.2841 152.941 19.2422 152.933 19.2 152.933C19.1577 152.933 19.1159 152.941 19.0769 152.957C19.0379 152.973 19.0025 152.997 18.9728 153.027L16.5888 155.414L15.5872 154.41C15.5563 154.38 15.5198 154.356 15.4799 154.341C15.4399 154.325 15.3973 154.317 15.3543 154.318C15.3114 154.319 15.269 154.328 15.2296 154.345C15.1903 154.362 15.1546 154.387 15.1248 154.418C15.095 154.448 15.0715 154.485 15.0557 154.525C15.04 154.565 15.0323 154.608 15.033 154.65C15.0338 154.693 15.043 154.736 15.0601 154.775C15.0772 154.815 15.1019 154.85 15.1328 154.88L16.3616 156.109C16.3913 156.139 16.4267 156.163 16.4657 156.179C16.5047 156.195 16.5465 156.203 16.5888 156.203C16.631 156.203 16.6729 156.195 16.7119 156.179C16.7508 156.163 16.7862 156.139 16.816 156.109L19.4272 153.498C19.4597 153.468 19.4856 153.431 19.5033 153.391C19.5211 153.35 19.5302 153.307 19.5302 153.262C19.5302 153.218 19.5211 153.174 19.5033 153.134C19.4856 153.094 19.4597 153.057 19.4272 153.027Z" fill="#26D266" stroke="#26D166" stroke-width="0.32"/>
<line x1="7.03999" y1="142.88" x2="112.96" y2="142.88" stroke="#EDE8E3" stroke-width="0.32"/>
<defs>
<linearGradient id="paint0_linear_28_11" x1="53.5148" y1="82.1465" x2="65.7459" y2="48.542" gradientUnits="userSpaceOnUse">
<stop stop-color="#1A1F71"/>
<stop offset="0.06" stop-color="#313A85"/>
<stop offset="0.14" stop-color="#51609F"/>
<stop offset="0.24" stop-color="#6D80B7"/>
<stop offset="0.34" stop-color="#839AC9"/>
<stop offset="0.46" stop-color="#95AFD8"/>
<stop offset="0.59" stop-color="#A1BDE2"/>
<stop offset="0.74" stop-color="#A8C5E8"/>
<stop offset="1" stop-color="#AAC8EA"/>
</linearGradient>
<linearGradient id="paint1_linear_28_11" x1="52.8334" y1="55.3048" x2="57.4957" y2="28.8678" gradientUnits="userSpaceOnUse">
<stop stop-color="#1A1F71"/>
<stop offset="0.06" stop-color="#313A85"/>
<stop offset="0.14" stop-color="#51609F"/>
<stop offset="0.24" stop-color="#6D80B7"/>
<stop offset="0.34" stop-color="#839AC9"/>
<stop offset="0.46" stop-color="#95AFD8"/>
<stop offset="0.59" stop-color="#A1BDE2"/>
<stop offset="0.74" stop-color="#A8C5E8"/>
<stop offset="1" stop-color="#AAC8EA"/>
</linearGradient>
<linearGradient id="paint2_linear_28_11" x1="73.159" y1="72.2439" x2="75.5905" y2="58.4472" gradientUnits="userSpaceOnUse">
<stop stop-color="#1F8654"/>
<stop offset="0.02" stop-color="#1F8C55"/>
<stop offset="0.16" stop-color="#21A65B"/>
<stop offset="0.3" stop-color="#23BA60"/>
<stop offset="0.47" stop-color="#24C863"/>
<stop offset="0.67" stop-color="#25D065"/>
<stop offset="1" stop-color="#25D366"/>
</linearGradient>
<linearGradient id="paint3_linear_28_11" x1="76.5435" y1="53.1382" x2="78.5842" y2="41.5776" gradientUnits="userSpaceOnUse">
<stop stop-color="#1F8654"/>
<stop offset="0.02" stop-color="#1F8C55"/>
<stop offset="0.16" stop-color="#21A65B"/>
<stop offset="0.3" stop-color="#23BA60"/>
<stop offset="0.47" stop-color="#24C863"/>
<stop offset="0.67" stop-color="#25D065"/>
<stop offset="1" stop-color="#25D366"/>
</linearGradient>
<linearGradient id="paint4_linear_28_11" x1="13.6445" y1="131.009" x2="20.3834" y2="131.009" gradientUnits="userSpaceOnUse">
<stop stop-color="#1F8654"/>
<stop offset="0.02" stop-color="#1F8C55"/>
<stop offset="0.16" stop-color="#21A65B"/>
<stop offset="0.3" stop-color="#23BA60"/>
<stop offset="0.47" stop-color="#24C863"/>
<stop offset="0.67" stop-color="#25D065"/>
<stop offset="1" stop-color="#25D366"/>
</linearGradient>
<linearGradient id="paint5_linear_28_11" x1="17.2729" y1="134.255" x2="18.1704" y2="129.166" gradientUnits="userSpaceOnUse">
<stop stop-color="#1F8654"/>
<stop offset="0.02" stop-color="#1F8C55"/>
<stop offset="0.16" stop-color="#21A65B"/>
<stop offset="0.3" stop-color="#23BA60"/>
<stop offset="0.47" stop-color="#24C863"/>
<stop offset="0.67" stop-color="#25D065"/>
<stop offset="1" stop-color="#25D366"/>
</linearGradient>
</defs>
</svg>
