<svg width="427" height="88" viewBox="0 0 427 88" fill="none" xmlns="http://www.w3.org/2000/svg">
<path opacity="0.2" d="M7.06976 62.7169C13.4079 72.2599 32.1399 73.735 40.0963 68.0371C51.3888 59.9494 50.7646 38.5732 62.4945 30.9985C84.0615 17.0817 110.416 55.3012 127.088 17.3282V88.2841H7.06976V62.7169Z" fill="#92E3A9"/>
<path d="M27.3565 71.5481C25.324 71.5474 23.2958 71.3624 21.2967 70.9954C14.7439 69.8025 9.63839 66.888 6.93058 62.8123C6.9129 62.7751 6.90923 62.7328 6.92026 62.6931C6.93129 62.6534 6.95628 62.6191 6.99062 62.5963C7.02496 62.5736 7.06635 62.564 7.10719 62.5694C7.14802 62.5747 7.18556 62.5946 7.21289 62.6254C9.83323 66.5659 14.9864 69.4964 21.3563 70.6614C28.5136 71.9736 35.8219 70.888 39.9969 67.8979C45.5 63.9575 48.2078 56.6929 50.8242 49.6669C53.5559 42.3308 56.3909 34.7441 62.403 30.8553C71.2938 25.1137 81.0197 28.1793 90.4314 31.1416C104.165 35.4718 117.144 39.5593 126.933 17.2606C126.955 17.2258 126.988 17.1999 127.028 17.1877C127.067 17.1755 127.109 17.1778 127.147 17.1942C127.184 17.2106 127.215 17.24 127.233 17.277C127.25 17.314 127.254 17.3562 127.243 17.3958C122.73 27.6704 117.303 33.1059 110.181 34.4936C103.899 35.7262 97.3063 33.6506 90.3281 31.4518C80.9958 28.5133 71.3416 25.4874 62.5859 31.1297C56.6613 34.9548 53.8382 42.4858 51.1383 49.7743C48.5061 56.848 45.7784 64.1603 40.1957 68.1643C37.142 70.3592 32.4461 71.5481 27.3565 71.5481Z" fill="#92E3A9"/>
<path d="M17.0143 53.6908H0V88.284H17.0143V53.6908Z" fill="#92E3A9"/>
<path opacity="0.3" d="M17.0143 53.6908H0V88.284H17.0143V53.6908Z" fill="black"/>
<path d="M45.0229 64.7806H28.0086V88.2841H45.0229V64.7806Z" fill="#92E3A9"/>
<path opacity="0.3" d="M45.0229 64.7806H28.0086V88.2841H45.0229V64.7806Z" fill="black"/>
<path d="M73.0315 44.9233H56.0172V88.2841H73.0315V44.9233Z" fill="#92E3A9"/>
<path opacity="0.3" d="M73.0315 44.9233H56.0172V88.2841H73.0315V44.9233Z" fill="black"/>
<path d="M101.036 21.0977H84.0217V88.2841H101.036V21.0977Z" fill="#92E3A9"/>
<path opacity="0.3" d="M101.036 21.0977H84.0217V88.2841H101.036V21.0977Z" fill="black"/>
<path d="M129.177 16.3445H112.021V87.9974H129.177V16.3445Z" fill="#92E3A9"/>
<path opacity="0.3" d="M129.177 16.3445H112.021V87.9974H129.177V16.3445Z" fill="black"/>
<path d="M21.5313 53.6908H4.51698V88.284H21.5313V53.6908Z" fill="#92E3A9"/>
<path opacity="0.1" d="M21.5313 53.6908H4.51698V88.284H21.5313V53.6908Z" fill="black"/>
<path d="M49.5399 64.7806H32.5256V88.2841H49.5399V64.7806Z" fill="#92E3A9"/>
<path opacity="0.1" d="M49.5399 64.7806H32.5256V88.2841H49.5399V64.7806Z" fill="black"/>
<path d="M77.5445 44.9233H60.5302V88.2841H77.5445V44.9233Z" fill="#92E3A9"/>
<path opacity="0.1" d="M77.5445 44.9233H60.5302V88.2841H77.5445V44.9233Z" fill="black"/>
<path d="M105.553 21.0977H88.5388V88.2841H105.553V21.0977Z" fill="#92E3A9"/>
<path d="M439 87.9974V16.7265C439 16.7265 321.933 66.4967 269.904 38.1144C217.874 9.73218 116.057 16.3445 116.057 16.3445V87.9974H439Z" fill="url(#paint0_linear_27_1051)"/>
<path d="M98.4873 2.139C97.3942 1.04542 95.9115 0.430839 94.3654 0.430466C92.8192 0.430093 91.3362 1.04395 90.2426 2.13701C89.149 3.23006 88.5344 4.71277 88.5341 6.25896C88.5337 7.80514 89.1475 9.28814 90.2406 10.3817L94.3639 14.5011L98.4833 10.3777C99.0246 9.83708 99.4541 9.19508 99.7472 8.48841C100.04 7.78174 100.191 7.02425 100.192 6.25919C100.192 5.49413 100.042 4.7365 99.7494 4.02955C99.4569 3.3226 99.0281 2.68019 98.4873 2.139Z" fill="#92E3A9"/>
<path opacity="0.1" d="M98.4873 2.139C97.3942 1.04542 95.9115 0.430839 94.3654 0.430466C92.8192 0.430093 91.3362 1.04395 90.2426 2.13701C89.149 3.23006 88.5344 4.71277 88.5341 6.25896C88.5337 7.80514 89.1475 9.28814 90.2406 10.3817L94.3639 14.5011L98.4833 10.3777C99.0246 9.83708 99.4541 9.19508 99.7472 8.48841C100.04 7.78174 100.191 7.02425 100.192 6.25919C100.192 5.49413 100.042 4.7365 99.7494 4.02955C99.4569 3.3226 99.0281 2.68019 98.4873 2.139Z" fill="black"/>
<defs>
<linearGradient id="paint0_linear_27_1051" x1="116" y1="76" x2="280.438" y2="-2.44783" gradientUnits="userSpaceOnUse">
<stop stop-color="#92E3A9"/>
<stop offset="1" stop-color="#92E3A9" stop-opacity="0"/>
</linearGradient>
</defs>
</svg>
